<svg width="24" height="24" viewBox="0 0 24 24" fill="none" xmlns="http://www.w3.org/2000/svg">
<g clip-path="url(#clip0_116_140)">
<rect width="24" height="24" fill="#F1875E"/>
<path d="M24 0H0V24H24V0Z" fill="white"/>
<path d="M21.702 3.0014C21.4583 3.01155 21.2211 3.07596 21.0072 3.1573C20.7955 3.23811 19.5765 3.73216 17.7765 4.463C15.9764 5.19384 13.6365 6.14556 11.317 7.08925C6.67793 8.97668 2.11929 10.8338 2.11929 10.8338L2.15252 10.8217C2.15252 10.8217 1.87737 10.909 1.59842 11.0936C1.45895 11.1859 1.30889 11.305 1.18603 11.4787C1.06317 11.6524 0.973352 11.8986 1.0072 12.159C1.12609 13.0735 2.12417 13.3329 2.12417 13.3329L2.12808 13.3347L6.58229 14.7824C6.69587 15.1422 7.93327 19.0642 8.20547 19.8948C8.3558 20.354 8.49651 20.6189 8.64328 20.7996C8.71673 20.8901 8.7937 20.96 8.87879 21.0112C8.9126 21.0315 8.94817 21.0468 8.98337 21.0604C8.9841 21.0607 8.98455 21.0601 8.98532 21.0604C8.98963 21.0622 8.99369 21.0624 8.99801 21.0641L8.98627 21.0613C8.99445 21.0644 9.00252 21.0697 9.01073 21.0725C9.02661 21.0777 9.03634 21.0776 9.05664 21.0817C9.56677 21.2509 9.98893 20.937 9.98893 20.937L10.0065 20.924L12.7428 18.5139L17.1833 21.8019L17.239 21.826C18.0163 22.1537 18.7192 21.9709 19.1084 21.6701C19.4977 21.3693 19.6508 20.9815 19.6508 20.9815L19.6674 20.9407L22.9304 4.79059C23.0139 4.42928 23.0257 4.11696 22.947 3.83474C22.8683 3.55252 22.6769 3.30721 22.4369 3.17123C22.1968 3.03525 21.9457 2.99125 21.702 3.0014ZM21.7284 3.96745C21.8274 3.96311 21.9007 3.97385 21.9238 3.98695C21.947 4.00005 21.9573 3.99831 21.9795 4.07788C22.0017 4.15745 22.0138 4.32506 21.9532 4.58735L21.9512 4.59292L18.7068 20.6493C18.6991 20.6654 18.6315 20.814 18.4771 20.9333C18.3197 21.0549 18.1445 21.1499 17.6797 20.9648L12.8239 17.3688L12.6871 17.2667L12.6841 17.2695L11.232 16.2348L19.3928 7.11711C19.4555 7.04723 19.4956 6.9616 19.5081 6.87057C19.5207 6.77953 19.5052 6.68699 19.4635 6.60415C19.4219 6.52128 19.3558 6.45167 19.2734 6.4037C19.1909 6.35576 19.0956 6.33149 18.999 6.33388C18.9046 6.33621 18.8127 6.36388 18.7342 6.41367L6.92531 13.8897L2.46426 12.4392C2.46426 12.4392 2.02127 12.2051 2.00007 12.042C1.99889 12.033 1.99366 12.0412 2.01668 12.0086C2.0397 11.9761 2.09756 11.9211 2.1701 11.8731C2.31519 11.7771 2.48087 11.7191 2.48087 11.7191L2.49748 11.7135L2.51409 11.707C2.51409 11.707 7.07299 9.84985 11.7118 7.96253C14.0312 7.01887 16.3707 6.06784 18.1703 5.33718C19.9694 4.60672 21.2694 4.08093 21.3795 4.03891C21.5048 3.99126 21.6294 3.97182 21.7284 3.96745ZM16.3165 9.08634L10.1277 16.0009L10.1248 16.0037C10.1151 16.0147 10.106 16.0262 10.0974 16.038C10.0876 16.0509 10.0785 16.0642 10.07 16.0779C10.0353 16.134 10.013 16.1962 10.0046 16.2607C10.0046 16.262 10.0046 16.2632 10.0046 16.2645L9.19834 19.7073C9.18495 19.6701 9.17555 19.6565 9.16122 19.6127V19.6118C8.90513 18.8304 7.73767 15.1316 7.57615 14.62L16.3165 9.08634ZM10.8264 17.134L11.9385 17.9265L10.3046 19.3649L10.8264 17.134Z" fill="#F1875E"/>
</g>
<defs>
<clipPath id="clip0_116_140">
<rect width="24" height="24" fill="white"/>
</clipPath>
</defs>
</svg>
