<svg width="28" height="17" viewBox="0 0 28 17" fill="none" xmlns="http://www.w3.org/2000/svg">
<path d="M9.94728 0.0304394C9.70881 0.105053 9.52769 0.322403 9.47335 0.588413C9.41298 0.87389 9.43411 0.929037 10.0409 1.99308L10.4665 2.73921V5.16575V7.59229L10.4001 7.55336C10.2642 7.47551 9.96237 7.19976 9.69371 6.90131C8.80019 5.91512 7.81612 4.26066 6.67205 1.81466C6.38226 1.19829 6.11059 0.65654 6.06832 0.604635C6.02305 0.555975 5.92645 0.484604 5.85098 0.442432L5.71212 0.371063H3.19156C1.07851 0.371063 0.646846 0.377552 0.520064 0.416479C0.197069 0.520288 -0.0444222 0.925795 0.00689465 1.28913C0.0310438 1.47079 0.332908 2.32397 0.658921 3.13174C2.6633 8.12756 5.77552 12.932 8.68549 15.5272C9.63938 16.3771 10.1707 16.6853 11.0702 16.9059C11.3509 16.9773 11.4083 16.9773 14.1734 16.987L16.9867 17V15.1185V13.2402L17.0803 13.1558C17.1316 13.1104 17.183 13.0715 17.1981 13.0715C17.2101 13.0715 17.995 13.9084 18.9368 14.9335C20.7933 16.9449 20.751 16.9027 21.1374 16.9676C21.2491 16.987 22.3267 16.9968 23.8119 16.987C26.589 16.974 26.4019 16.9903 26.8788 16.7372C27.4222 16.4485 27.8116 15.8646 27.9142 15.1833C28.0048 14.5962 27.8237 13.9636 27.4222 13.4608C27.3165 13.3277 26.4049 12.3416 25.3967 11.2743C24.1862 9.98963 23.5674 9.31163 23.5764 9.27919C23.5825 9.24999 24.5635 7.54039 25.7559 5.48042C26.9483 3.42046 27.9414 1.66868 27.9655 1.59082C28.0863 1.15288 27.881 0.67276 27.4856 0.481361L27.3256 0.403503L24.7447 0.393772C23.1116 0.387283 22.0792 0.397017 21.9313 0.416479C21.6505 0.458652 21.4091 0.546242 21.1887 0.685736C20.8234 0.925795 20.7993 0.964722 18.8432 4.34177L17.0018 7.52417L16.9867 4.06278C16.9717 0.701954 16.9686 0.594902 16.9113 0.468386C16.8811 0.400261 16.8026 0.286718 16.7392 0.221838C16.5128 -0.0149784 16.703 -0.00200081 13.1863 0.00124359C11.4506 0.00124359 9.99256 0.0142193 9.94728 0.0304394ZM16.0208 4.86406V8.69202H16.7422H17.4637L19.4469 5.25983C20.5397 3.37504 21.4785 1.77573 21.5389 1.71085C21.5962 1.64597 21.7139 1.55838 21.7985 1.51621L21.9524 1.4416L24.4518 1.43186C25.8253 1.42862 26.9483 1.43186 26.9483 1.43835C26.9483 1.44808 25.9068 3.25501 24.636 5.45123L22.3237 9.44788L24.5877 11.8842L26.8517 14.3204L26.9181 14.5572C26.9724 14.7421 26.9815 14.8395 26.9664 14.979C26.912 15.4656 26.589 15.8321 26.1362 15.9262C26.0336 15.9457 25.0858 15.9587 23.6157 15.9587H21.2551L19.2477 13.8014L17.2433 11.6409L16.6305 12.2021L16.0208 12.7633V14.3594V15.9587H13.8655C12.495 15.9587 11.6226 15.9457 11.4747 15.923C10.4665 15.7738 9.68164 15.2158 8.14213 13.5581C7.38747 12.7471 6.88638 12.1437 6.22529 11.2386C4.29035 8.59145 2.47916 5.22414 1.2868 2.05796C1.16002 1.71734 1.0604 1.43186 1.06946 1.41564C1.07549 1.40267 2.05353 1.39294 3.23684 1.39294H5.39215L5.78155 2.22665C7.57161 6.07732 9.17149 8.29949 10.4695 8.74068C10.6355 8.79583 10.8136 8.82503 11.0702 8.84125L11.4324 8.86395V5.6556V2.444L11.04 1.75627C10.8257 1.37671 10.6476 1.0588 10.6476 1.05231C10.6476 1.04258 11.8581 1.03609 13.3342 1.03609H16.0208V4.86406Z" fill="#F1875E"/>
</svg>
